# xmcd CD database file
#
# Track frame offsets:
#	150
#	17412
#	36137
#	55645
#	74965
#	89235
#	105485
#	119045
#	137827
#	150635
#	170537
#	184492
#
# Disc length: 2692 seconds
#
# Revision: 0
# Processed by: cddbd v1.5.1PL0 Copyright (c) Steve Scherf et al.
# Submitted via: CDex 1.51
#
DISCID=af0a820c
DTITLE=Dick Hyman - Gulf Coast Blues
DYEAR=1986
DGENRE=Jazz
TTITLE0=Organ Grinder Blues
TTITLE1=Achin' Hearted Blues
TTITLE2=I'm Goin' Back to Bottomland
TTITLE3=Wild Cat Blues
TTITLE4=You Don't Understand
TTITLE5=Shout, Sister, Shout!
TTITLE6=What's the Matter Now?
TTITLE7=Gulf Coast Blues
TTITLE8=Papa De-Da-Da
TTITLE9=Let Every Day Be Mother's (Sweetheart's) Day
TTITLE10=Nobody But My Baby (Is Getting My Love)
TTITLE11=Cushion Foot Stomp
EXTD=YEAR: 1986
EXTT0=
EXTT1=
EXTT2=
EXTT3=
EXTT4=
EXTT5=
EXTT6=
EXTT7=
EXTT8=
EXTT9=
EXTT10=
EXTT11=
PLAYORDER=
